{
    "asset" : {
        "generator" : "Khronos glTF Blender I/O v1.8.19",
        "version" : "2.0"
    },
    "scene" : 0,
    "scenes" : [
        {
            "name" : "Scene",
            "nodes" : [
                0,
                1,
                2,
                3
            ]
        }
    ],
    "nodes" : [
        {
            "mesh" : 0,
            "name" : "geometry"
        },
        {
            "mesh" : 1,
            "name" : "geometry2",
            "translation" : [
                31.919034957885742,
                21.443607330322266,
                -17.53608512878418
            ]
        },
        {
            "mesh" : 2,
            "name" : "geometry3",
            "translation" : [
                -23.236406326293945,
                20.427169799804688,
                14.365727424621582
            ]
        },
        {
            "mesh" : 3,
            "name" : "geometry4"
        }
    ],
    "meshes" : [
        {
            "name" : "Mesh",
            "primitives" : [
                {
                    "attributes" : {
                        "POSITION" : 0,
                        "NORMAL" : 1
                    },
                    "indices" : 2
                }
            ]
        },
        {
            "name" : "Mesh.001",
            "primitives" : [
                {
                    "attributes" : {
                        "POSITION" : 3,
                        "NORMAL" : 4
                    },
                    "indices" : 2
                }
            ]
        },
        {
            "name" : "Mesh.003",
            "primitives" : [
                {
                    "attributes" : {
                        "POSITION" : 5,
                        "NORMAL" : 6
                    },
                    "indices" : 2
                }
            ]
        },
        {
            "name" : "geom",
            "primitives" : [
                {
                    "attributes" : {
                        "POSITION" : 7,
                        "NORMAL" : 8
                    },
                    "indices" : 9
                }
            ]
        }
    ],
    "accessors" : [
        {
            "bufferView" : 0,
            "componentType" : 5126,
            "count" : 204,
            "max" : [
                20,
                10,
                2.000000238418579
            ],
            "min" : [
                -20,
                -10.001006126403809,
                -4.37113897078234e-07
            ],
            "type" : "VEC3"
        },
        {
            "bufferView" : 1,
            "componentType" : 5126,
            "count" : 204,
            "type" : "VEC3"
        },
        {
            "bufferView" : 2,
            "componentType" : 5123,
            "count" : 612,
            "type" : "SCALAR"
        },
        {
            "bufferView" : 3,
            "componentType" : 5126,
            "count" : 204,
            "max" : [
                22.119400024414062,
                9.999788284301758,
                0.9999990463256836
            ],
            "min" : [
                -22.119384765625,
                -10.001721382141113,
                -1.0000016689300537
            ],
            "type" : "VEC3"
        },
        {
            "bufferView" : 4,
            "componentType" : 5126,
            "count" : 204,
            "type" : "VEC3"
        },
        {
            "bufferView" : 5,
            "componentType" : 5126,
            "count" : 204,
            "max" : [
                14.947795867919922,
                10.146933555603027,
                1.0147333145141602
            ],
            "min" : [
                -14.947799682617188,
                -10.148897171020508,
                -1.0147480964660645
            ],
            "type" : "VEC3"
        },
        {
            "bufferView" : 6,
            "componentType" : 5126,
            "count" : 204,
            "type" : "VEC3"
        },
        {
            "bufferView" : 7,
            "componentType" : 5126,
            "count" : 832,
            "max" : [
                29.719343185424805,
                29.548677444458008,
                6.858312129974365
            ],
            "min" : [
                -29.719341278076172,
                -29.719343185424805,
                -6.858312129974365
            ],
            "type" : "VEC3"
        },
        {
            "bufferView" : 8,
            "componentType" : 5126,
            "count" : 832,
            "type" : "VEC3"
        },
        {
            "bufferView" : 9,
            "componentType" : 5123,
            "count" : 4980,
            "type" : "SCALAR"
        }
    ],
    "bufferViews" : [
        {
            "buffer" : 0,
            "byteLength" : 2448,
            "byteOffset" : 0
        },
        {
            "buffer" : 0,
            "byteLength" : 2448,
            "byteOffset" : 2448
        },
        {
            "buffer" : 0,
            "byteLength" : 1224,
            "byteOffset" : 4896
        },
        {
            "buffer" : 0,
            "byteLength" : 2448,
            "byteOffset" : 6120
        },
        {
            "buffer" : 0,
            "byteLength" : 2448,
            "byteOffset" : 8568
        },
        {
            "buffer" : 0,
            "byteLength" : 2448,
            "byteOffset" : 11016
        },
        {
            "buffer" : 0,
            "byteLength" : 2448,
            "byteOffset" : 13464
        },
        {
            "buffer" : 0,
            "byteLength" : 9984,
            "byteOffset" : 15912
        },
        {
            "buffer" : 0,
            "byteLength" : 9984,
            "byteOffset" : 25896
        },
        {
            "buffer" : 0,
            "byteLength" : 9960,
            "byteOffset" : 35880
        }
    ],
    "buffers" : [
        {
            "byteLength" : 45840,
            "uri" : "data:application/octet-stream;base64,"
        }
    ]
}
