{
	"asset":{
		"generator":"Khronos glTF Blender I/O v3.6.27",
		"version":"2.0"
	},
	"scene":0,
	"scenes":[
		{
			"name":"Scene",
			"nodes":[
				0,
				1,
				2,
				3,
				4
			]
		}
	],
	"nodes":[
		{
			"mesh":0,
			"name":"vase"
		},
		{
			"mesh":1,
			"name":"flower"
		},
		{
			"mesh":2,
			"name":"floor"
		},
		{
			"mesh":3,
			"name":"plane"
		},
		{
			"mesh":4,
			"name":"vase2"
		}
	],
	"meshes":[
		{
			"name":"Circle",
			"primitives":[
				{
					"attributes":{
						"POSITION":0,
						"NORMAL":1
					},
					"indices":2
				}
			]
		},
		{
			"name":"Plane.039",
			"primitives":[
				{
					"attributes":{
						"POSITION":3,
						"NORMAL":4
					},
					"indices":5
				}
			]
		},
		{
			"name":"Plane.005",
			"primitives":[
				{
					"attributes":{
						"POSITION":6,
						"NORMAL":7
					},
					"indices":8
				}
			]
		},
		{
			"name":"mesh",
			"primitives":[
				{
					"attributes":{
						"POSITION":9,
						"NORMAL":10
					},
					"indices":11
				}
			]
		},
		{
			"name":"Circle.001",
			"primitives":[
				{
					"attributes":{
						"POSITION":12,
						"NORMAL":13
					},
					"indices":14
				}
			]
		}
	],
	"accessors":[
		{
			"bufferView":0,
			"componentType":5126,
			"count":4898,
			"max":[
				0.4116729497909546,
				0.7802426218986511,
				0.4116729497909546
			],
			"min":[
				-0.4116729497909546,
				0.00037565207458101213,
				-0.4116729497909546
			],
			"type":"VEC3"
		},
		{
			"bufferView":1,
			"componentType":5126,
			"count":4898,
			"type":"VEC3"
		},
		{
			"bufferView":2,
			"componentType":5123,
			"count":29376,
			"type":"SCALAR"
		},
		{
			"bufferView":3,
			"componentType":5126,
			"count":13179,
			"max":[
				0.4408966302871704,
				1.65506112575531,
				0.26391807198524475
			],
			"min":[
				-1.5244100093841553,
				-0.0015588775277137756,
				-0.9195387363433838
			],
			"type":"VEC3"
		},
		{
			"bufferView":4,
			"componentType":5126,
			"count":13179,
			"type":"VEC3"
		},
		{
			"bufferView":5,
			"componentType":5123,
			"count":76560,
			"type":"SCALAR"
		},
		{
			"bufferView":6,
			"componentType":5126,
			"count":4,
			"max":[
				35.23808670043945,
				0,
				35.23808670043945
			],
			"min":[
				-35.23808670043945,
				0,
				-35.23808670043945
			],
			"type":"VEC3"
		},
		{
			"bufferView":7,
			"componentType":5126,
			"count":4,
			"type":"VEC3"
		},
		{
			"bufferView":8,
			"componentType":5123,
			"count":6,
			"type":"SCALAR"
		},
		{
			"bufferView":9,
			"componentType":5126,
			"count":10184,
			"max":[
				0.608745276927948,
				1.3114222288131714,
				0.4374920129776001
			],
			"min":[
				-0.4642946124076843,
				-0.009622186422348022,
				-1.2748947143554688
			],
			"type":"VEC3"
		},
		{
			"bufferView":10,
			"componentType":5126,
			"count":10184,
			"type":"VEC3"
		},
		{
			"bufferView":11,
			"componentType":5123,
			"count":33408,
			"type":"SCALAR"
		},
		{
			"bufferView":12,
			"componentType":5126,
			"count":1226,
			"max":[
				-0.07574689388275146,
				0.5244064927101135,
				-0.8090406656265259
			],
			"min":[
				-0.629123330116272,
				0.00025251932675018907,
				-1.3624171018600464
			],
			"type":"VEC3"
		},
		{
			"bufferView":13,
			"componentType":5126,
			"count":1226,
			"type":"VEC3"
		},
		{
			"bufferView":14,
			"componentType":5123,
			"count":7344,
			"type":"SCALAR"
		}
	],
	"bufferViews":[
		{
			"buffer":0,
			"byteLength":58776,
			"byteOffset":0,
			"target":34962
		},
		{
			"buffer":0,
			"byteLength":58776,
			"byteOffset":58776,
			"target":34962
		},
		{
			"buffer":0,
			"byteLength":58752,
			"byteOffset":117552,
			"target":34963
		},
		{
			"buffer":0,
			"byteLength":158148,
			"byteOffset":176304,
			"target":34962
		},
		{
			"buffer":0,
			"byteLength":158148,
			"byteOffset":334452,
			"target":34962
		},
		{
			"buffer":0,
			"byteLength":153120,
			"byteOffset":492600,
			"target":34963
		},
		{
			"buffer":0,
			"byteLength":48,
			"byteOffset":645720,
			"target":34962
		},
		{
			"buffer":0,
			"byteLength":48,
			"byteOffset":645768,
			"target":34962
		},
		{
			"buffer":0,
			"byteLength":12,
			"byteOffset":645816,
			"target":34963
		},
		{
			"buffer":0,
			"byteLength":122208,
			"byteOffset":645828,
			"target":34962
		},
		{
			"buffer":0,
			"byteLength":122208,
			"byteOffset":768036,
			"target":34962
		},
		{
			"buffer":0,
			"byteLength":66816,
			"byteOffset":890244,
			"target":34963
		},
		{
			"buffer":0,
			"byteLength":14712,
			"byteOffset":957060,
			"target":34962
		},
		{
			"buffer":0,
			"byteLength":14712,
			"byteOffset":971772,
			"target":34962
		},
		{
			"buffer":0,
			"byteLength":14688,
			"byteOffset":986484,
			"target":34963
		}
	],
	"buffers":[
		{
			"byteLength":1001172,
			"uri":"data:application/octet-stream;base64,"
		}
	]
}
