{
    "asset" : {
        "generator" : "Khronos glTF Blender I/O v1.8.19",
        "version" : "2.0"
    },
    "scene" : 0,
    "scenes" : [
        {
            "name" : "Scene",
            "nodes" : [
                0
            ]
        }
    ],
    "nodes" : [
        {
            "mesh" : 0,
            "name" : "glass"
        }
    ],
    "meshes" : [
        {
            "name" : "line",
            "primitives" : [
                {
                    "attributes" : {
                        "POSITION" : 0,
                        "NORMAL" : 1
                    },
                    "indices" : 2
                }
            ]
        }
    ],
    "accessors" : [
        {
            "bufferView" : 0,
            "componentType" : 5126,
            "count" : 648,
            "max" : [
                0.6004088521003723,
                1.521783709526062,
                0.6004088521003723
            ],
            "min" : [
                -0.6004088521003723,
                1.0031708317608708e-16,
                -0.6004088521003723
            ],
            "type" : "VEC3"
        },
        {
            "bufferView" : 1,
            "componentType" : 5126,
            "count" : 648,
            "type" : "VEC3"
        },
        {
            "bufferView" : 2,
            "componentType" : 5123,
            "count" : 3672,
            "type" : "SCALAR"
        }
    ],
    "bufferViews" : [
        {
            "buffer" : 0,
            "byteLength" : 7776,
            "byteOffset" : 0
        },
        {
            "buffer" : 0,
            "byteLength" : 7776,
            "byteOffset" : 7776
        },
        {
            "buffer" : 0,
            "byteLength" : 7344,
            "byteOffset" : 15552
        }
    ],
    "buffers" : [
        {
            "byteLength" : 22896,
            "uri" : "data:application/octet-stream;base64,"
        }
    ]
}
