{
	"asset":{
		"generator":"Khronos glTF Blender I/O v3.6.27",
		"version":"2.0"
	},
	"scene":0,
	"scenes":[
		{
			"name":"Scene",
			"nodes":[
				0,
				1,
				2,
				3,
				4,
				5,
				6,
				7,
				8,
				9,
				10
			]
		}
	],
	"nodes":[
		{
			"mesh":0,
			"name":"glass"
		},
		{
			"mesh":1,
			"name":"liquid"
		},
		{
			"mesh":2,
			"name":"ice"
		},
		{
			"mesh":3,
			"name":"ice2"
		},
		{
			"mesh":4,
			"name":"straw"
		},
		{
			"mesh":5,
			"name":"bubble"
		},
		{
			"mesh":6,
			"name":"bubble2"
		},
		{
			"mesh":7,
			"name":"bubble3"
		},
		{
			"mesh":8,
			"name":"floor"
		},
		{
			"mesh":9,
			"name":"ball"
		},
		{
			"mesh":10,
			"name":"ball2"
		}
	],
	"meshes":[
		{
			"name":"\u8d1d\u585e\u5c14\u66f2\u7ebf",
			"primitives":[
				{
					"attributes":{
						"POSITION":0,
						"NORMAL":1
					},
					"indices":2
				}
			]
		},
		{
			"name":"\u5706\u73af",
			"primitives":[
				{
					"attributes":{
						"POSITION":3,
						"NORMAL":4
					},
					"indices":5
				}
			]
		},
		{
			"name":"\u7acb\u65b9\u4f53",
			"primitives":[
				{
					"attributes":{
						"POSITION":6,
						"NORMAL":7
					},
					"indices":8
				}
			]
		},
		{
			"name":"\u7acb\u65b9\u4f53.001",
			"primitives":[
				{
					"attributes":{
						"POSITION":9,
						"NORMAL":10
					},
					"indices":11
				}
			]
		},
		{
			"name":"\u8d1d\u585e\u5c14\u66f2\u7ebf.003",
			"primitives":[
				{
					"attributes":{
						"POSITION":12,
						"NORMAL":13
					},
					"indices":14
				}
			]
		},
		{
			"name":"\u7403\u4f53",
			"primitives":[
				{
					"attributes":{
						"POSITION":15,
						"NORMAL":16
					},
					"indices":17
				}
			]
		},
		{
			"name":"\u7403\u4f53.001",
			"primitives":[
				{
					"attributes":{
						"POSITION":18,
						"NORMAL":19
					},
					"indices":20
				}
			]
		},
		{
			"name":"\u7403\u4f53.002",
			"primitives":[
				{
					"attributes":{
						"POSITION":21,
						"NORMAL":22
					},
					"indices":17
				}
			]
		},
		{
			"name":"\u5e73\u9762",
			"primitives":[
				{
					"attributes":{
						"POSITION":23,
						"NORMAL":24
					},
					"indices":25
				}
			]
		},
		{
			"name":"\u7403\u4f53.003",
			"primitives":[
				{
					"attributes":{
						"POSITION":26,
						"NORMAL":27
					},
					"indices":28
				}
			]
		},
		{
			"name":"\u7403\u4f53.004",
			"primitives":[
				{
					"attributes":{
						"POSITION":29,
						"NORMAL":30
					},
					"indices":28
				}
			]
		}
	],
	"accessors":[
		{
			"bufferView":0,
			"componentType":5126,
			"count":418,
			"max":[
				1.8657876253128052,
				5.003472328186035,
				2.9268088340759277
			],
			"min":[
				-3.8410487174987793,
				0,
				-2.819159507751465
			],
			"type":"VEC3"
		},
		{
			"bufferView":1,
			"componentType":5126,
			"count":418,
			"type":"VEC3"
		},
		{
			"bufferView":2,
			"componentType":5123,
			"count":2496,
			"type":"SCALAR"
		},
		{
			"bufferView":3,
			"componentType":5126,
			"count":481,
			"max":[
				1.2875882387161255,
				4.257991790771484,
				2.3290438652038574
			],
			"min":[
				-3.262849807739258,
				0.6501067876815796,
				-2.2213940620422363
			],
			"type":"VEC3"
		},
		{
			"bufferView":4,
			"componentType":5126,
			"count":481,
			"type":"VEC3"
		},
		{
			"bufferView":5,
			"componentType":5123,
			"count":2490,
			"type":"SCALAR"
		},
		{
			"bufferView":6,
			"componentType":5126,
			"count":726,
			"max":[
				-0.5211583375930786,
				4.665871620178223,
				0.42785483598709106
			],
			"min":[
				-2.334752082824707,
				2.6898632049560547,
				-1.3945683240890503
			],
			"type":"VEC3"
		},
		{
			"bufferView":7,
			"componentType":5126,
			"count":726,
			"type":"VEC3"
		},
		{
			"bufferView":8,
			"componentType":5123,
			"count":3600,
			"type":"SCALAR"
		},
		{
			"bufferView":9,
			"componentType":5126,
			"count":726,
			"max":[
				-0.23235732316970825,
				3.3166704177856445,
				1.1257437467575073
			],
			"min":[
				-1.8559212684631348,
				1.626811146736145,
				-0.6334004998207092
			],
			"type":"VEC3"
		},
		{
			"bufferView":10,
			"componentType":5126,
			"count":726,
			"type":"VEC3"
		},
		{
			"bufferView":11,
			"componentType":5123,
			"count":3600,
			"type":"SCALAR"
		},
		{
			"bufferView":12,
			"componentType":5126,
			"count":336,
			"max":[
				4.0182037353515625,
				6.298834323883057,
				0.05298846960067749
			],
			"min":[
				-0.8283818960189819,
				0.6737192869186401,
				-2.1343564987182617
			],
			"type":"VEC3"
		},
		{
			"bufferView":13,
			"componentType":5126,
			"count":336,
			"type":"VEC3"
		},
		{
			"bufferView":14,
			"componentType":5123,
			"count":1008,
			"type":"SCALAR"
		},
		{
			"bufferView":15,
			"componentType":5126,
			"count":240,
			"max":[
				-0.977231502532959,
				1.2098652124404907,
				0.1383751630783081
			],
			"min":[
				-1.2860950231552124,
				0.9003599882125854,
				-0.17048834264278412
			],
			"type":"VEC3"
		},
		{
			"bufferView":16,
			"componentType":5126,
			"count":240,
			"type":"VEC3"
		},
		{
			"bufferView":17,
			"componentType":5123,
			"count":336,
			"type":"SCALAR"
		},
		{
			"bufferView":18,
			"componentType":5126,
			"count":240,
			"max":[
				-1.5293959379196167,
				2.1281211376190186,
				-0.2559402287006378
			],
			"min":[
				-1.8934931755065918,
				1.7512675523757935,
				-0.6200374960899353
			],
			"type":"VEC3"
		},
		{
			"bufferView":19,
			"componentType":5126,
			"count":240,
			"type":"VEC3"
		},
		{
			"bufferView":20,
			"componentType":5123,
			"count":336,
			"type":"SCALAR"
		},
		{
			"bufferView":21,
			"componentType":5126,
			"count":240,
			"max":[
				-1.5752968788146973,
				2.8313381671905518,
				-0.83055180311203
			],
			"min":[
				-1.9521417617797852,
				2.45048451423645,
				-1.2058521509170532
			],
			"type":"VEC3"
		},
		{
			"bufferView":22,
			"componentType":5126,
			"count":240,
			"type":"VEC3"
		},
		{
			"bufferView":23,
			"componentType":5126,
			"count":4,
			"max":[
				352.1772155761719,
				-0.009999999776482582,
				353.28863525390625
			],
			"min":[
				-353.4635925292969,
				-0.009999999776482582,
				-352.3521728515625
			],
			"type":"VEC3"
		},
		{
			"bufferView":24,
			"componentType":5126,
			"count":4,
			"type":"VEC3"
		},
		{
			"bufferView":25,
			"componentType":5123,
			"count":6,
			"type":"SCALAR"
		},
		{
			"bufferView":26,
			"componentType":5126,
			"count":482,
			"max":[
				-1.434972882270813,
				3.0190110206604004,
				-4.734450340270996
			],
			"min":[
				-4.373922348022461,
				0.07395493984222412,
				-7.673398494720459
			],
			"type":"VEC3"
		},
		{
			"bufferView":27,
			"componentType":5126,
			"count":482,
			"type":"VEC3"
		},
		{
			"bufferView":28,
			"componentType":5123,
			"count":2880,
			"type":"SCALAR"
		},
		{
			"bufferView":29,
			"componentType":5126,
			"count":482,
			"max":[
				5.262743949890137,
				3.9437665939331055,
				-5.513370990753174
			],
			"min":[
				1.38278067111969,
				0.055739760398864746,
				-9.39333438873291
			],
			"type":"VEC3"
		},
		{
			"bufferView":30,
			"componentType":5126,
			"count":482,
			"type":"VEC3"
		}
	],
	"bufferViews":[
		{
			"buffer":0,
			"byteLength":5016,
			"byteOffset":0,
			"target":34962
		},
		{
			"buffer":0,
			"byteLength":5016,
			"byteOffset":5016,
			"target":34962
		},
		{
			"buffer":0,
			"byteLength":4992,
			"byteOffset":10032,
			"target":34963
		},
		{
			"buffer":0,
			"byteLength":5772,
			"byteOffset":15024,
			"target":34962
		},
		{
			"buffer":0,
			"byteLength":5772,
			"byteOffset":20796,
			"target":34962
		},
		{
			"buffer":0,
			"byteLength":4980,
			"byteOffset":26568,
			"target":34963
		},
		{
			"buffer":0,
			"byteLength":8712,
			"byteOffset":31548,
			"target":34962
		},
		{
			"buffer":0,
			"byteLength":8712,
			"byteOffset":40260,
			"target":34962
		},
		{
			"buffer":0,
			"byteLength":7200,
			"byteOffset":48972,
			"target":34963
		},
		{
			"buffer":0,
			"byteLength":8712,
			"byteOffset":56172,
			"target":34962
		},
		{
			"buffer":0,
			"byteLength":8712,
			"byteOffset":64884,
			"target":34962
		},
		{
			"buffer":0,
			"byteLength":7200,
			"byteOffset":73596,
			"target":34963
		},
		{
			"buffer":0,
			"byteLength":4032,
			"byteOffset":80796,
			"target":34962
		},
		{
			"buffer":0,
			"byteLength":4032,
			"byteOffset":84828,
			"target":34962
		},
		{
			"buffer":0,
			"byteLength":2016,
			"byteOffset":88860,
			"target":34963
		},
		{
			"buffer":0,
			"byteLength":2880,
			"byteOffset":90876,
			"target":34962
		},
		{
			"buffer":0,
			"byteLength":2880,
			"byteOffset":93756,
			"target":34962
		},
		{
			"buffer":0,
			"byteLength":672,
			"byteOffset":96636,
			"target":34963
		},
		{
			"buffer":0,
			"byteLength":2880,
			"byteOffset":97308,
			"target":34962
		},
		{
			"buffer":0,
			"byteLength":2880,
			"byteOffset":100188,
			"target":34962
		},
		{
			"buffer":0,
			"byteLength":672,
			"byteOffset":103068,
			"target":34963
		},
		{
			"buffer":0,
			"byteLength":2880,
			"byteOffset":103740,
			"target":34962
		},
		{
			"buffer":0,
			"byteLength":2880,
			"byteOffset":106620,
			"target":34962
		},
		{
			"buffer":0,
			"byteLength":48,
			"byteOffset":109500,
			"target":34962
		},
		{
			"buffer":0,
			"byteLength":48,
			"byteOffset":109548,
			"target":34962
		},
		{
			"buffer":0,
			"byteLength":12,
			"byteOffset":109596,
			"target":34963
		},
		{
			"buffer":0,
			"byteLength":5784,
			"byteOffset":109608,
			"target":34962
		},
		{
			"buffer":0,
			"byteLength":5784,
			"byteOffset":115392,
			"target":34962
		},
		{
			"buffer":0,
			"byteLength":5760,
			"byteOffset":121176,
			"target":34963
		},
		{
			"buffer":0,
			"byteLength":5784,
			"byteOffset":126936,
			"target":34962
		},
		{
			"buffer":0,
			"byteLength":5784,
			"byteOffset":132720,
			"target":34962
		}
	],
	"buffers":[
		{
			"byteLength":138504,
			"uri":"data:application/octet-stream;base64,"
		}
	]
}
