<svg width="64" height="64" viewBox="0 0 64 64" fill="none" xmlns="http://www.w3.org/2000/svg">
<path fill-rule="evenodd" clip-rule="evenodd" d="M40.3381 62.9029C37.6797 63.6184 34.8844 64 32 64C14.3269 64 0 49.6731 0 32C0 14.3269 14.3269 0 32 0C49.6731 0 64 14.3269 64 32C64 36.5968 63.0307 40.9673 61.2854 44.9182L45.8589 43.4089C42.9237 43.1218 40.379 45.4243 40.3721 48.3735L40.3381 62.9029ZM55 24.5C55 28.6421 51.6421 32 47.5 32C43.3579 32 40 28.6421 40 24.5C40 20.3579 43.3579 17 47.5 17C51.6421 17 55 20.3579 55 24.5ZM32 18C35.3137 18 38 15.3137 38 12C38 8.68629 35.3137 6 32 6C28.6863 6 26 8.68629 26 12C26 15.3137 28.6863 18 32 18ZM22 21C22 23.7614 19.7614 26 17 26C14.2386 26 12 23.7614 12 21C12 18.2386 14.2386 16 17 16C19.7614 16 22 18.2386 22 21ZM16 40C18.2091 40 20 38.2091 20 36C20 33.7909 18.2091 32 16 32C13.7909 32 12 33.7909 12 36C12 38.2091 13.7909 40 16 40ZM30 49C30 50.6569 28.6569 52 27 52C25.3431 52 24 50.6569 24 49C24 47.3431 25.3431 46 27 46C28.6569 46 30 47.3431 30 49Z" fill="#333333"/>
</svg>
